<?xml version="1.0" encoding="UTF-8"?>
<svg id="katman_1" data-name="katman 1" xmlns="http://www.w3.org/2000/svg" viewBox="0 0 224.06 249">
  <path d="M206.01,65.7c-2.8,1-5.9,4.6-7.2,8.2-.8,2.5-1.2,12.6-1.3,33.6,0,33.2-.4,35.8-7,50.2-8.4,18.1-20.6,31.3-37.7,40.7-32.86,20.12-69.78-.76-95.5,27-6.9,7.3-8,10.7-5.7,16.7,2,4.8,5.6,6.9,11.8,6.9,3.9,0,5.2-.6,10.8-5.4,11-9.3,12.5-9.7,36.3-10.1,16.5-.3,20.3-.6,28.7-2.8,44.8-11.97,79.88-51.42,83.8-99.9,1.6-15.2,1.3-54.1-.4-58.3-2.4-5.7-10.5-9-16.6-6.8Z"/>
  <circle cx="47.69" cy="193.36" r="9.53"/>
  <circle cx="187.81" cy="26.17" r="22.06"/>
  <circle cx="38.16" cy="45.03" r="18.86"/>
  <circle cx="16.47" cy="102.06" r="16.47"/>
  <circle cx="111.83" cy="21.06" r="21.06"/>
  <circle cx="16.47" cy="157.01" r="14.41"/>
</svg>